<?xml version="1.0" ?><svg viewBox="0 0 64 64" xmlns="http://www.w3.org/2000/svg"><defs><style>.cls-1{fill:#222;}</style></defs><title/><g id="Live"><path class="cls-1" d="M61.76,15a1.5,1.5,0,0,0-1.53,0L49.67,21.63V16.29a5.12,5.12,0,0,0-5.11-5.12h-38a5.12,5.12,0,0,0-5.11,5.12V47.71a5.12,5.12,0,0,0,5.11,5.12h38a5.12,5.12,0,0,0,5.11-5.12V42.37L60.23,49a1.5,1.5,0,0,0,2.3-1.27V16.26A1.5,1.5,0,0,0,61.76,15ZM14.91,37.87H9.45A1.5,1.5,0,0,1,8,36.37V27.63a1.5,1.5,0,0,1,3,0v7.24h4a1.5,1.5,0,1,1,0,3Zm6.54-1.5a1.5,1.5,0,0,1-3,0V27.63a1.5,1.5,0,0,1,3,0Zm11.6-8.2-3.41,8.75a.31.31,0,0,1-.05.1.8.8,0,0,1-.08.16l-.05.06a.76.76,0,0,1-.11.14.47.47,0,0,1-.1.1l-.14.11-.06,0a.8.8,0,0,1-.16.08l-.1.05h0l-.05,0h-.05a.63.63,0,0,1-.22.05l-.22,0a.82.82,0,0,1-.22,0,.8.8,0,0,1-.21-.05h0l-.1,0-.1-.05-.14-.07-.14-.1a1.15,1.15,0,0,1-.32-.34,1.18,1.18,0,0,1-.11-.19.31.31,0,0,1-.05-.1l-3.41-8.75a1.5,1.5,0,0,1,2.8-1.09l2,5.16,2-5.16a1.5,1.5,0,1,1,2.79,1.09Zm7,2.33a1.5,1.5,0,0,1,0,3H38v1.37h3.66a1.5,1.5,0,0,1,0,3H36.53a1.5,1.5,0,0,1-1.5-1.5V27.63a1.5,1.5,0,0,1,1.5-1.5h5.16a1.5,1.5,0,0,1,0,3H38V30.5Z"/></g></svg>