<?xml version="1.0" ?><!DOCTYPE svg  PUBLIC '-//W3C//DTD SVG 1.1//EN'  'http://www.w3.org/Graphics/SVG/1.1/DTD/svg11.dtd'><svg enable-background="new 0 0 66 66" id="Layer_1" version="1.1" viewBox="0 0 66 66" xml:space="preserve" xmlns="http://www.w3.org/2000/svg" xmlns:xlink="http://www.w3.org/1999/xlink"><g><path d="M30.2,15.1c-0.1-1.2-1.2-2.1-2.5-1.9c-1,0.2-1.6,1.1-1.6,2.1v15.4c0,0.6-0.5,1-1,1c-0.6,0-1-0.5-1-1V6.6c0-1.1-1-2-2.1-1.8   c-0.9,0.1-1.5,1-1.5,1.9V31c0,0.6-0.5,1-1,1s-1-0.5-1-1V3c0-1.2-1.1-2.2-2.3-1.9c-1,0.2-1.6,1.1-1.6,2.1v28.2c0,0.6-0.5,1-1,1   c-0.6,0-1-0.5-1-1V7.9c0-1-0.9-1.9-1.9-1.9c-1,0-1.9,0.8-1.9,1.9c0.1,7.6-0.2-9.6,0.2,24.6c0,2.2,1,4.3,2.8,5.4   c0.3,0.2,0.6,0.4,0.9,0.5c3.8,1.5,6.4,5.2,6.8,6.8c0.1,0.6-0.2,1.1-0.8,1.2c-0.5,0.1-1.1-0.3-1.2-0.8c-0.2-0.9-2.3-4.1-5.5-5.3   c-0.4-0.2-0.9-0.4-1.3-0.7c-2.3-1.5-3.7-4.2-3.7-7.1c0-3.5,0.9-7.8-2.2-7.8c-0.1,0-2.2,0.1-2.2,2.2v10.8c0,4.2,4.8,12.5,6.8,15.9   c1.5,2.5,1.5,4.8,1.4,7.8c0,0.6,0,1.2,0,1.9c0,1,0.8,1.8,1.7,1.8h14.2c1,0,1.7-0.8,1.7-1.7c0-12.7,4.8-18,3.3-33.4L30.2,15.1z"/><path d="M61.5,24.6c-1.3,0-2.2,1-2.2,2.2v5.6c0,3.5-2.1,6.7-5,7.8c-3.1,1.2-5.3,4.4-5.5,5.3c-0.1,0.6-0.7,0.9-1.2,0.8   c-0.6-0.1-0.9-0.7-0.8-1.2c0.3-1.6,2.9-5.4,6.7-6.8c2.2-0.8,3.7-3.3,3.7-5.9v-5.6c0-0.6,0.1-1.2,0.4-1.7c-0.2-0.3-0.1,0.5-0.1-17.3   c0-1.1-1-2.1-2.2-1.9c-0.9,0.2-1.6,1-1.6,2v23.4c0,0.6-0.5,1-1,1c-0.6,0-1-0.5-1-1V3.1c0-1-0.7-1.9-1.7-2c-1.2-0.2-2.3,0.8-2.3,1.9   v28c0,0.6-0.5,1-1,1c-0.6,0-1-0.5-1-1V6.6c0-1.1-1-2-2.1-1.8C42.6,5,42,5.8,42,6.7v24.1c0,0.6-0.5,1-1,1c-0.6,0-1-0.5-1-1V15.3   c0-1.2-1.1-2.2-2.4-2.1c-1,0.1-1.7,1-1.8,2l-1.2,14.6c-1.6,15.3,3.3,20.7,3.3,33.4c0,1,0.8,1.7,1.7,1.7h14.3c1,0,1.8-0.8,1.7-1.8   c0-0.7,0-1.3,0-1.9c-0.1-3.1-0.1-5.3,1.4-7.8c2.1-3.4,6.8-11.7,6.8-15.9V26.9C63.7,25.7,62.7,24.6,61.5,24.6z"/></g></svg>